<svg xmlns="http://www.w3.org/2000/svg" viewBox="0 0 48 48" role="img" aria-label="Google">
  <path fill="#EA4335" d="M24 9.5c3.54 0 6.73 1.22 9.24 3.23l6.9-6.9C35.9 2.27 30.23 0 24 0 14.62 0 6.38 5.38 2.32 13.22l8.02 6.24C12.3 13.27 17.68 9.5 24 9.5z"/>
  <path fill="#4285F4" d="M46.1 24.5c0-1.54-.14-3.02-.4-4.5H24v8.52h12.42c-.54 2.94-2.2 5.44-4.68 7.1l7.18 5.56c4.2-3.88 7.18-9.6 7.18-16.68z"/>
  <path fill="#FBBC05" d="M10.34 28.46A14.48 14.48 0 0 1 9.6 24c0-1.56.27-3.06.74-4.46l-8.02-6.24A23.97 23.97 0 0 0 0 24c0 3.86.92 7.52 2.32 10.78l8.02-6.32z"/>
  <path fill="#34A853" d="M24 48c6.23 0 11.46-2.06 15.28-5.6l-7.18-5.56c-2 1.34-4.56 2.14-8.1 2.14-6.32 0-11.7-3.77-13.66-9.18l-8.02 6.32C6.38 42.62 14.62 48 24 48z"/>
</svg>
